<svg xmlns="http://www.w3.org/2000/svg" width="31.994" height="21.118" viewBox="0 0 31.994 21.118">
  <path id="behance" d="M12.915,14.882s3.027-.235,3.027-3.934-2.477-5.506-5.616-5.506H0V26.124H10.326s6.306.206,6.306-6.106c0,0,.274-5.136-3.717-5.136ZM4.55,9.115h5.776s1.4,0,1.4,2.15-.826,2.466-1.763,2.466H4.55V9.115Zm5.484,13.331H4.551V16.918h5.776s2.093-.029,2.093,2.84C12.42,22.177,10.857,22.428,10.034,22.446Zm15-11.745c-7.634,0-7.627,7.947-7.627,7.947s-.522,7.906,7.627,7.906c0,0,6.789.406,6.789-5.5H28.336s.115,2.226-3.181,2.226a3.271,3.271,0,0,1-3.494-3.6H31.938s1.134-8.979-6.9-8.979Zm3.106,6.217H21.626s.426-3.187,3.491-3.187S28.144,16.918,28.144,16.918Zm.811-10.262H20.768v2.55h8.187Z" transform="translate(0 -5.442)" fill="#63c9ef"/>
</svg>
