<svg xmlns="http://www.w3.org/2000/svg" width="29.439" height="24.961" viewBox="0 0 29.439 24.961">
  <path id="github" d="M21.088,18.094c-1.149,0-2.08,1.291-2.08,2.878s.931,2.882,2.08,2.882,2.08-1.291,2.08-2.882S22.237,18.094,21.088,18.094ZM28.33,10.6A14.209,14.209,0,0,0,27.314,3.52s-2.9.318-7.282,3.328A17.212,17.212,0,0,0,16,6.467a17.207,17.207,0,0,0-4.032.381C7.584,3.838,4.687,3.52,4.687,3.52A14.247,14.247,0,0,0,3.673,10.6,8.677,8.677,0,0,0,1.281,16.8c0,11.5,9.541,11.682,11.947,11.682.547,0,1.629,0,2.774,0s2.227,0,2.771,0c2.41,0,11.947-.184,11.947-11.682A8.682,8.682,0,0,0,28.33,10.6ZM16.045,27.064h-.09c-6.034,0-10.734-.718-10.734-6.584A4.953,4.953,0,0,1,6.9,16.69c1.963-1.8,5.288-.85,9.059-.85h.089c3.771,0,7.1-.954,9.062.85a4.962,4.962,0,0,1,1.672,3.79c0,5.866-4.7,6.584-10.734,6.584Zm-5.131-8.97c-1.149,0-2.08,1.291-2.08,2.878s.931,2.882,2.08,2.882S13,22.563,13,20.972,12.065,18.094,10.914,18.094Z" transform="translate(-1.281 -3.52)" fill="#63c9ef"/>
</svg>
