<svg xmlns="http://www.w3.org/2000/svg" width="28.8" height="28.8" viewBox="0 0 28.8 28.8">
  <path id="linkedin" d="M10674-1866.2V-1887h6.4v20.8Zm22.4,0v-10.978c0-2.549-.97-4.5-3.2-4.5a3.354,3.354,0,0,0-3,2.511,4.415,4.415,0,0,0-.2,1.542v11.421h-6.4v-13.688c0-2.471-.084-4.537-.164-6.323h5.751l.284,2.759h.121a7.115,7.115,0,0,1,6.116-3.2c4.051,0,7.091,2.713,7.091,8.547v11.907Zm-22.4-25.515a3.15,3.15,0,0,1,3.2-3.282,3.1,3.1,0,0,1,3.2,3.2,3.032,3.032,0,0,1-3.2,3.161A3.031,3.031,0,0,1,10674-1891.718Z" transform="translate(-10674.001 1895)" fill="#63c9ef"/>
</svg>
