<svg id="Layer_1" data-name="Layer 1" xmlns="http://www.w3.org/2000/svg" viewBox="0 0 412.32 412.32"><defs><style>.cls-1{fill:#c1272d;}</style></defs><title>Logo2</title><path class="cls-1" d="M145.68,389a8.6,8.6,0,0,1-3.33-.69c-3.66-1.53-5.15-6.09-4.07-12.52,4.95-29.59,23.29-55.64,41-80.82,3.53-5,6.88-9.77,10.11-14.52,9.62-29.06,18.73-58.27,27.64-86.86l11.17-35.8q4.71-15.15,9.46-30.3l-3.81,4.17c-5.1,5.57-9.91,10.83-13.75,15.5l-9.19,11.19q-8.25,10.05-16.36,19.88c-7,20.4-16.66,39-25.52,54.93-5.95,10.68-14.82,20.58-21.88,28-.21.21-21.77,20.91-30.84,16.69-3-1.38-4.16-4.89-3.54-10.43.68-6.13,5.62-10.83,8.89-13.94,25.36-24.13,47.57-49.86,70-76.89q2.1-6.16,3.82-12.54c.81-3-.45-7.78-1.46-11.62-.27-1-.52-2-.72-2.83a16.48,16.48,0,0,0-5.64-8.52c-6.29-5.31-15.53-7.47-25.35-5.93-9.33,1.47-17.94,5.77-25.86,10.21-18.71,10.47-31,22-39.81,37.42l-2.85-1.64c9-15.73,22-28,41.05-38.65,7.79-4.37,17.09-9,27-10.59,10.76-1.69,21,.74,28,6.67a19.66,19.66,0,0,1,6.73,10.29c.19.83.43,1.75.69,2.73,1.11,4.22,2.49,9.47,1.46,13.32-.44,1.64-.9,3.26-1.38,4.88q5.52-6.71,11.11-13.53l9.2-11.2c3.9-4.74,8.74-10,13.86-15.63,2.8-3.06,5.7-6.22,8.6-9.47q2.55-8.09,5.11-16.15c.27-.87.76-2.68,1.41-5.14,6.66-24.88,14.61-50.65,23.13-53.2a5.22,5.22,0,0,1,5.2,1.3c2.73,2.44,3.18,6.4,3.27,9.16.79,22.45-17.34,45.68-35.19,65.69q-5.83,18.57-11.61,37.14L220.2,194.6c-7.78,24.93-15.69,50.33-24,75.71,11-16.52,22.23-33.52,32.83-51,1.89-3.13,4.14-6.57,6.53-10.23,5.25-8,11.25-17.18,15.49-26.23-5.87-9.45-9.62-20.31-10.09-29.82-.19-3.74.64-6.19,2.47-7.28,1.11-.65,3-1.06,5.93.7,5.16,3.16,10.85,11.75,10.44,18.11-.35,5.75-2.27,11.86-5,18,1.17,1.77,2.4,3.49,3.71,5.11a26,26,0,0,0,2.49,2.58A31.39,31.39,0,0,1,277.79,182a10.54,10.54,0,0,1,8.73,3.1,9.75,9.75,0,0,1,3,8.12c-.79,6.72-4.1,9-6.74,9.79-6.53,1.88-15.71-3.6-21.65-8.39a59.44,59.44,0,0,0-9.21,13c-11.42,21.2-14.91,51.93-7.63,67.11,4.47,9.31,11.73,18,21.58,25.7,17.78,14,36.89,18.51,56.82,13.46l.81,3.19c-21,5.31-41,.58-59.66-14.06-10.25-8.06-17.83-17.1-22.52-26.87-7.67-16-4.14-48.09,7.7-70.09a61.81,61.81,0,0,1,9.61-13.53,27.64,27.64,0,0,1-2.71-2.79c-1-1.2-1.89-2.43-2.78-3.7-4.26,8.65-9.88,17.25-14.84,24.83-2.37,3.62-4.61,7-6.48,10.13-12.28,20.28-25.36,39.85-38,58.78-.49.72-1,1.45-1.47,2.18-5.72,17.26-11.62,34.48-17.78,51.49-.49,1.36-1.22,3.91-2.14,7.14-4.22,14.78-12.07,42.29-22.92,47.52A8.83,8.83,0,0,1,145.68,389Zm40-97.38c-1.21,1.73-2.44,3.47-3.69,5.24-17.53,24.89-35.65,50.62-40.48,79.47-.29,1.77-1,7.64,2.09,8.94a5.22,5.22,0,0,0,4.51-.16c9.53-4.59,17.4-32.19,21.19-45.46.93-3.29,1.68-5.89,2.21-7.36Q178.83,312.15,185.69,291.65Zm2.65-105.88c-20.51,24.54-41.11,48-64.38,70.14-3.87,3.67-7.38,7.35-7.89,11.92-.3,2.73-.26,6.19,1.66,7.08,5.37,2.52,22.22-10.89,27.06-16,6.93-7.29,15.63-17,21.4-27.34C173.72,218.05,181.82,202.6,188.34,185.77Zm75.21,6.62c5.52,4.36,13.55,8.89,18.36,7.5,2.48-.72,3.91-3,4.39-7a6.53,6.53,0,0,0-2.08-5.39,7.43,7.43,0,0,0-6-2.18A28,28,0,0,0,263.55,192.39Zm-18-43.93a.91.91,0,0,0-.45.1c-.18.11-1,.8-.87,4.29.41,8.19,3.57,17.77,8.45,26.28a47.32,47.32,0,0,0,3.83-14.8c.32-5-4.61-12.48-8.87-15.09A4.42,4.42,0,0,0,245.58,148.46Zm25.61-99.89a1.81,1.81,0,0,0-.55.09C262.73,51,253,87.55,249.75,99.56c-.68,2.52-1.17,4.39-1.46,5.29q-1.44,4.52-2.86,9c15.69-18.2,30.13-38.56,29.46-57.81-.12-3.43-.82-5.59-2.18-6.81A2.25,2.25,0,0,0,271.19,48.57Z" transform="translate(-12.82 -14)"/><path class="cls-1" d="M218.64,394a174.61,174.61,0,0,1-35.26-3.59l.67-3.22a170.64,170.64,0,0,0,166-58.41l2.54,2.09A173.24,173.24,0,0,1,218.64,394Z" transform="translate(-12.82 -14)"/><path class="cls-1" d="M111.22,356.83A173.48,173.48,0,0,1,72,127.2L74.8,129a170.46,170.46,0,0,0,38.46,225.29Z" transform="translate(-12.82 -14)"/><path class="cls-1" d="M337.38,83.45a10.68,10.68,0,0,1,.63,5.87A13.42,13.42,0,0,1,330.29,99a10.75,10.75,0,0,1-5.84.68,12,12,0,0,1-5.58-2.57A11.08,11.08,0,0,1,315.61,93a9.77,9.77,0,0,1-.77-5l-8.11,10.13-2.45-2L324.2,71.23l2.35,1.89-2.88,3.59a9.68,9.68,0,0,1,5.13-.43,10.88,10.88,0,0,1,4.87,2.31A12,12,0,0,1,337.38,83.45Zm-12.77,13.2a7.94,7.94,0,0,0,4.44-.56,9.81,9.81,0,0,0,3.84-3A9.47,9.47,0,0,0,335,88.72a8.15,8.15,0,0,0-.43-4.46,9.19,9.19,0,0,0-6.93-5.55,8.23,8.23,0,0,0-4.42.57,10.48,10.48,0,0,0-5.91,7.38,8,8,0,0,0,.41,4.44,9.31,9.31,0,0,0,6.94,5.55Z" transform="translate(-12.82 -14)"/><path class="cls-1" d="M357.4,105.13q-.09,3.33-3.42,6.3L343.21,121l-2-2.25,2.7-2.41a7.2,7.2,0,0,1-4.19-.45,11,11,0,0,1-4-3A9.54,9.54,0,0,1,333,107.1a6.4,6.4,0,0,1,7.13-6.57q2.79.39,5.91,3.9l4.92,5.51L352,109a6,6,0,0,0,2.3-4.3,7,7,0,0,0-2.1-4.72,12.69,12.69,0,0,0-3.38-2.69A10.67,10.67,0,0,0,345,96l.8-2.62A12.76,12.76,0,0,1,350.36,95a16.85,16.85,0,0,1,4.09,3.36Q357.48,101.78,357.4,105.13Zm-15.57,9.14a7.31,7.31,0,0,0,4.51-.23l2.84-2.54-4.86-5.45q-4-4.45-7.08-1.69a3.82,3.82,0,0,0-1.37,3.3,7,7,0,0,0,2,4A8.31,8.31,0,0,0,341.83,114.27Z" transform="translate(-12.82 -14)"/><path class="cls-1" d="M350.75,129.36a10.75,10.75,0,0,1,1.23-5.88,12.83,12.83,0,0,1,10.27-6.66,10.93,10.93,0,0,1,5.85,1.3,12.58,12.58,0,0,1,4.62,4.37,11.92,11.92,0,0,1,1.94,5.15,9,9,0,0,1-.84,5l-2.62-1.11a7.33,7.33,0,0,0,.59-3.86,8.67,8.67,0,0,0-1.38-3.7,9,9,0,0,0-3.4-3.19,8,8,0,0,0-4.41-.9,9.81,9.81,0,0,0-4.59,1.63,9.7,9.7,0,0,0-3.38,3.53,8.08,8.08,0,0,0-1,4.37,9.23,9.23,0,0,0,1.52,4.43,9,9,0,0,0,2.8,2.77,7.18,7.18,0,0,0,3.75,1.06l-.07,2.83a8.82,8.82,0,0,1-4.92-1.29,12.06,12.06,0,0,1-3.9-3.86A12.49,12.49,0,0,1,350.75,129.36Z" transform="translate(-12.82 -14)"/><path class="cls-1" d="M386.91,155.88c-.87,2.26-2.78,4.05-5.76,5.35l-12.37,5.41-1.26-2.88,12.09-5.29a7.7,7.7,0,0,0,4.34-3.88,6.81,6.81,0,0,0-.33-5.51,8,8,0,0,0-4.43-4.56,8.47,8.47,0,0,0-6.54.47l-11.19,4.9L360.19,147l30.1-13.16,1.26,2.87-12.5,5.47a8.54,8.54,0,0,1,4.31,2,11.64,11.64,0,0,1,3.09,4.3A9.55,9.55,0,0,1,386.91,155.88Z" transform="translate(-12.82 -14)"/><path class="cls-1" d="M396.57,185.91a10.66,10.66,0,0,1-3.12,5,13.41,13.41,0,0,1-12,2.84,10.59,10.59,0,0,1-5-3.07,12,12,0,0,1-2.81-5.45,10.93,10.93,0,0,1,0-5.24,9.66,9.66,0,0,1,2.48-4.43l-12.63,3-.72-3,31-7.33.69,2.93-4.48,1.06a9.77,9.77,0,0,1,4.31,2.83,11,11,0,0,1,2.41,4.82A11.91,11.91,0,0,1,396.57,185.91Zm-18.19,2.52a8,8,0,0,0,3.84,2.3,10.47,10.47,0,0,0,9.2-2.17,8.13,8.13,0,0,0,2.4-3.78,9.07,9.07,0,0,0-2-8.63,8.07,8.07,0,0,0-3.83-2.28,9.7,9.7,0,0,0-4.85,0,9.85,9.85,0,0,0-4.35,2.19,8,8,0,0,0-2.41,3.75,9.26,9.26,0,0,0,2,8.64Z" transform="translate(-12.82 -14)"/><path class="cls-1" d="M399,215.41c-1.42,1.71-3.61,2.66-6.59,2.85l-14.4.9-.19-3,3.62-.23a7.23,7.23,0,0,1-3-2.94,11,11,0,0,1-1.32-4.82,9.6,9.6,0,0,1,1.47-6.3,6.41,6.41,0,0,1,9.67-.76c1.29,1.35,2,3.59,2.23,6.71l.46,7.38,1.42-.09a6,6,0,0,0,4.47-2,7,7,0,0,0,1.26-5,12.48,12.48,0,0,0-1-4.2,10.81,10.81,0,0,0-2.22-3.36l2.25-1.56a12.47,12.47,0,0,1,2.58,4.09,16.71,16.71,0,0,1,1.15,5.17C401,211.32,400.37,213.69,399,215.41ZM381.06,213a7.32,7.32,0,0,0,3.69,2.6l3.8-.23-.45-7.29q-.37-6-4.53-5.71a3.84,3.84,0,0,0-3.11,1.75,7.07,7.07,0,0,0-.89,4.4A8.37,8.37,0,0,0,381.06,213Z" transform="translate(-12.82 -14)"/><path class="cls-1" d="M396.76,247.4c-1.87,1.54-4.42,2.13-7.65,1.79l-13.43-1.42.33-3.13L389.13,246a7.75,7.75,0,0,0,5.7-1.21,6.83,6.83,0,0,0,2.44-4.95,8,8,0,0,0-1.6-6.16,8.42,8.42,0,0,0-5.9-2.83l-12.15-1.3.33-3.12,23.15,2.46-.31,3-4.28-.45a8.78,8.78,0,0,1,2.91,3.89,11.55,11.55,0,0,1,.61,5.39A9.53,9.53,0,0,1,396.76,247.4Z" transform="translate(-12.82 -14)"/><path class="cls-1" d="M399.81,284.61l-31.53-9.22.84-2.89,4.42,1.29a9.65,9.65,0,0,1-2.39-4.59,10.94,10.94,0,0,1,.29-5.39,11.82,11.82,0,0,1,3.1-5.27,10.85,10.85,0,0,1,5.21-2.81,13.28,13.28,0,0,1,11.81,3.46,10.61,10.61,0,0,1,2.85,5.16,11.9,11.9,0,0,1-.25,6.11A11,11,0,0,1,391.6,275a9.61,9.61,0,0,1-4.34,2.63l13.43,3.93ZM373.88,269.4a8.05,8.05,0,0,0,2.21,3.87,10.46,10.46,0,0,0,9.1,2.66,7.92,7.92,0,0,0,3.95-2.08,8.7,8.7,0,0,0,2.32-3.9,8.88,8.88,0,0,0,.16-4.59,8,8,0,0,0-2.21-3.87,10.45,10.45,0,0,0-9.09-2.66,8,8,0,0,0-3.95,2.07,9.21,9.21,0,0,0-2.49,8.5Z" transform="translate(-12.82 -14)"/><path class="cls-1" d="M366.07,305.28l8.57-17.49a8.36,8.36,0,0,0-6.49-.08,9.25,9.25,0,0,0-4.81,4.74,9.87,9.87,0,0,0-1.06,3.92,8.6,8.6,0,0,0,.66,3.83l-2.61.69a10,10,0,0,1-.84-4.73A14,14,0,0,1,365,286.11a11.15,11.15,0,0,1,5.7-2,12.12,12.12,0,0,1,6.17,1.3,12.46,12.46,0,0,1,4.83,4,10.75,10.75,0,0,1,2,5.51,12,12,0,0,1-5.11,10.43,10.67,10.67,0,0,1-5.54,1.78,12.71,12.71,0,0,1-6.14-1.39Zm14.57-11.66a8.43,8.43,0,0,0-3.89-4.79l-7.27,14.82a8.4,8.4,0,0,0,6.17.14,8.55,8.55,0,0,0,5-10.17Z" transform="translate(-12.82 -14)"/><path class="cls-1" d="M92.38,90.15a11.17,11.17,0,0,1,3-4.67l2.15,2.18-.57.49a7.47,7.47,0,0,0-2.51,5.65,9,9,0,0,0,3,6l8.34,8.44-2.23,2.21L87.18,93.85l2.14-2.11L92.52,95A7.62,7.62,0,0,1,92.38,90.15Z" transform="translate(-12.82 -14)"/><path class="cls-1" d="M118.64,67.51l13.83,18.73L130.05,88l-2.52-3.42a8.54,8.54,0,0,1-.79,4.67,10.18,10.18,0,0,1-3.29,3.89,9.91,9.91,0,0,1-7.3,2.23q-3.63-.48-6.55-4.44l-8-10.86,2.53-1.86L112,88.85a7.75,7.75,0,0,0,4.77,3.41,6.85,6.85,0,0,0,5.3-1.55,7.63,7.63,0,0,0,3.34-5.24,8.66,8.66,0,0,0-2-6.26l-7.26-9.84Z" transform="translate(-12.82 -14)"/><path class="cls-1" d="M125.37,57A2.19,2.19,0,0,1,124,55.88a2.13,2.13,0,0,1-.18-1.68,2.39,2.39,0,0,1,2.85-1.62,2.06,2.06,0,0,1,1.32,1A2.32,2.32,0,0,1,125.37,57ZM138.12,92.8a5.45,5.45,0,0,1-2.43.07l-.21-2.63a5.36,5.36,0,0,0,3.76-.73,3.63,3.63,0,0,0,1.95-2.36,4.79,4.79,0,0,0-.73-3.35L128.24,62,131,60.45,143.2,82.27a7.28,7.28,0,0,1,1,5.38,6.55,6.55,0,0,1-3.48,4.13A9.43,9.43,0,0,1,138.12,92.8Z" transform="translate(-12.82 -14)"/><path class="cls-1" d="M159.89,47.4,168.64,69l-2.79,1.13-1.6-3.94a8.55,8.55,0,0,1-1.92,4.34,10.22,10.22,0,0,1-4.15,2.95,9.88,9.88,0,0,1-7.62.34q-3.41-1.36-5.25-5.92l-5.07-12.51,2.91-1.18,5,12.22a7.78,7.78,0,0,0,3.78,4.49,6.82,6.82,0,0,0,5.51-.18,7.66,7.66,0,0,0,4.54-4.25,8.74,8.74,0,0,0-.37-6.57L157,48.58Z" transform="translate(-12.82 -14)"/><path class="cls-1" d="M187.73,62.66a5.92,5.92,0,0,1-1.83,1.71,9,9,0,0,1-2.54,1.06,6.17,6.17,0,0,1-8.25-4.94l-3.38-13.67-4,1-.63-2.58,4-1-1.22-5,3.05-.75,1.22,4.94,6.88-1.7.63,2.58-6.87,1.7,3.33,13.49a4.4,4.4,0,0,0,1.77,2.83,3.93,3.93,0,0,0,3.16.33A5.45,5.45,0,0,0,184.8,62a4.73,4.73,0,0,0,1.32-1.23Z" transform="translate(-12.82 -14)"/><path class="cls-1" d="M205.45,40.43q2.67,2,3.16,6.44l1.58,14.35-3,.33-.4-3.61A7.22,7.22,0,0,1,204,61.1a10.93,10.93,0,0,1-4.75,1.54,9.53,9.53,0,0,1-6.37-1.17,6.4,6.4,0,0,1-1.21-9.62q1.94-2,6.6-2.55l7.35-.81-.16-1.41a5.93,5.93,0,0,0-2.17-4.36,7,7,0,0,0-5.06-1,12.43,12.43,0,0,0-4.14,1.19,10.82,10.82,0,0,0-3.26,2.38l-1.66-2.17a12.62,12.62,0,0,1,4-2.78,16.58,16.58,0,0,1,5.1-1.38C201.27,38.59,203.67,39.1,205.45,40.43Zm-1.58,18a7.33,7.33,0,0,0,2.43-3.81l-.42-3.79-7.26.8q-5.94.66-5.48,4.79a3.81,3.81,0,0,0,1.89,3,7,7,0,0,0,4.44.7A8.41,8.41,0,0,0,203.87,58.42Z" transform="translate(-12.82 -14)"/><path class="cls-1" d="M219,426.32c-113.68,0-206.16-92.48-206.16-206.16S105.3,14,219,14s206.16,92.48,206.16,206.16S332.66,426.32,219,426.32Zm0-409c-111.87,0-202.87,91-202.87,202.87S107.11,423,219,423s202.87-91,202.87-202.87S330.84,17.29,219,17.29Z" transform="translate(-12.82 -14)"/></svg>
