<svg xmlns="http://www.w3.org/2000/svg" viewBox="0 0 436.47 449.53"><defs><style>.cls-1{fill:none;stroke:#6b3231;stroke-miterlimit:10;stroke-width:3px;}.cls-2{font-size:44.52px;}.cls-2,.cls-3{fill:#6b3231;font-family:Montserrat-Regular, Montserrat;}.cls-3{font-size:44.52px;}</style></defs><title>Logo01</title><g id="Cicle"><circle class="cls-1" cx="211.5" cy="238.03" r="210"/></g><g id="curve_r"><path class="cls-1" d="M520.81,400.25A170.31,170.31,0,0,1,356,460.4" transform="translate(-176.64 -55.7)"/></g><g id="curve_l"><path class="cls-1" d="M284.06,427.65a170.07,170.07,0,0,1-39.35-224.88" transform="translate(-176.64 -55.7)"/></g><g id="name_r"><text class="cls-2" transform="translate(299.6 103.49) rotate(38.98)">P</text><text class="cls-2" transform="translate(322.92 122.46) rotate(48.68)">a</text><text class="cls-2" transform="matrix(0.54, 0.84, -0.84, 0.54, 339.61, 141.4)">c</text><text class="cls-2" transform="matrix(0.4, 0.92, -0.92, 0.4, 352.57, 161.08)">h</text><text class="cls-2" transform="translate(364.09 187.56) rotate(77.07)">p</text><text class="cls-2" transform="translate(370.49 215.66) rotate(86.74)">a</text><text class="cls-2" transform="translate(372.18 240.69) rotate(96.38)">n</text><text class="cls-2" transform="translate(369.07 269.49) rotate(106.61)">d</text><text class="cls-2" transform="matrix(-0.44, 0.9, -0.9, -0.44, 360.77, 297.21)">e</text></g><g id="name_l"><text class="cls-3" transform="translate(92.02 130.4) rotate(-42.19)">R</text><text class="cls-3" transform="matrix(0.85, -0.52, 0.52, 0.85, 114.88, 109.66)">u</text><text class="cls-3" transform="translate(139.87 94.88) rotate(-24.41)">j</text><text class="cls-3" transform="translate(149.9 89.65) rotate(-17.25)">u</text><text class="cls-3" transform="translate(177.6 81.42) rotate(-9.03)">t</text><text class="cls-3" transform="matrix(1, -0.02, 0.02, 1, 194.43, 78.4)">a</text></g><g id="rhu"><path class="cls-1" d="M262.26,248.93c10.51-18.32,25.1-30.46,42.77-40.34,8.78-4.91,18-9.37,27.75-10.82s20.31.44,27.82,7.12a19.34,19.34,0,0,1,6.34,10.19c1,4.61,3.33,11.84,2.07,16.41-7.07,25.74-18.72,49.3-31.67,72.53-6,10.73-14.71,20.73-23,29.45-4.2,4.43-36,32.18-33.09,7.73.68-5.64,4.94-10,8.94-13.78C327.46,291.88,359.15,252.08,392,212c19.86-24.18,62.24-61.32,61.47-96.07-.07-3.14-.56-6.56-2.75-8.62-11.55-10.83-26.75,53.05-29,60.14-8.45,26.2-16.7,52.47-25,78.72-17.61,55.49-34.93,111.2-54.93,165.86-3.39,9.28-15.94,64.74-32.15,57.55-3.76-1.66-3.84-7.26-3.09-11.57,6.78-38.69,35.25-72.33,56.25-103.77,13.78-20.65,27.56-41.31,40.45-62.59,10.91-18,44.68-55.65,21.73-76.05-4.93-4.38-8.36-1.87-8.14,4,.49,13.48,7,28.37,14.83,38.62,5.26,6.87,32.1,25.25,32.25,4.8.11-15.45-18.44-8.62-25.3-3.34-8.69,6.69-14.41,17.08-18.5,27-7.64,18.6-13.32,45.25-4.62,64.48,5.14,11.36,13.4,20.82,22.72,28.54,17.9,14.82,38.3,21.09,60.75,15.55" transform="translate(-176.64 -55.7)"/></g></svg>