<svg xmlns="http://www.w3.org/2000/svg" width="28.8" height="19.199" viewBox="0 0 28.8 19.199">
  <path id="mail" d="M2.518,8.458l12,6.446a3.465,3.465,0,0,0,2.9,0c.4-.216,11.219-6.027,12-6.446S30.94,6.4,29.5,6.4H2.434c-1.435,0-.7,1.637.085,2.058Zm27.263,3.524c-.888.462-11.819,6.158-12.363,6.443a2.725,2.725,0,0,1-1.45.318,2.734,2.734,0,0,1-1.45-.318c-.544-.284-11.413-5.982-12.3-6.445-.624-.326-.618.056-.618.35V24a1.948,1.948,0,0,0,1.6,1.6H28.8A1.948,1.948,0,0,0,30.4,24V12.332c0-.294.006-.677-.619-.35Z" transform="translate(-1.599 -6.4)" fill="#63c9ef"/>
</svg>
